<svg xmlns="http://www.w3.org/2000/svg" viewBox="0 0 35.57 34.31"><defs><style>.cls-1{fill:#a7b2b3;}.cls-2{fill:#2e2300;}.cls-3{fill:#e2d5bc;}.cls-4{fill:#c1ccce;}.cls-5{fill:#e4dfd3;}</style></defs><title>Favicon</title><g id="Layer_2" data-name="Layer 2"><g id="Layer_1-2" data-name="Layer 1"><path class="cls-1" d="M25.93,31.85a9.65,9.65,0,1,1,9.64-9.65,9.66,9.66,0,0,1-9.64,9.65"/><path class="cls-2" d="M16.83,22.14a7.51,7.51,0,0,1-2.51-.41C12,20.89,9.82,20.1,8.65,16a10.88,10.88,0,0,1,1.66-9.23A16.53,16.53,0,0,1,19.65.37,9.27,9.27,0,0,1,24.49.28a5.67,5.67,0,0,1,2.38,1.37,9.36,9.36,0,0,1,2.85,5.69,12.24,12.24,0,0,1-.88,6.49,14,14,0,0,1-8.44,7.69,11.57,11.57,0,0,1-3.57.62"/><path class="cls-3" d="M1.3,18.65C.09,14.41-.58,11.87.67,9.94S3.65,7.69,7,7.38a20.75,20.75,0,0,1,10.7,2.09c3.39,1.67,6.67,6,8.24,8.14a8.13,8.13,0,0,1,1.2,7c-.57,2.5-2.82,5.27-4.38,6.63a14.55,14.55,0,0,1-8.51,3.08c-3.18-.11-5.48-1.73-8-4.54s-4.36-9-5-11.12"/><path class="cls-4" d="M22.37,13.23a9.65,9.65,0,0,0,.31,18.05l.07-.05c1.56-1.36,3.81-4.13,4.38-6.63a8.13,8.13,0,0,0-1.2-7,46.09,46.09,0,0,0-3.56-4.38"/><path class="cls-5" d="M26.13,17.89l-.2-.28c-1.57-2.14-4.85-6.47-8.24-8.14a21.55,21.55,0,0,0-7.8-2.11A10.89,10.89,0,0,0,8.65,16c1.17,4.13,3.36,4.92,5.67,5.76a7.51,7.51,0,0,0,2.51.41,11.57,11.57,0,0,0,3.57-.62,14,14,0,0,0,5.73-3.63"/></g></g></svg>