<svg xmlns="http://www.w3.org/2000/svg" xmlns:xlink="http://www.w3.org/1999/xlink" viewBox="0 0 165.2 121.81"><defs><style>.cls-1{fill:none;}.cls-2{fill:#231f20;}.cls-3{clip-path:url(#clip-path);}.cls-4{fill:#a7b2b3;}.cls-5{fill:#2e2300;}.cls-6{fill:#e2d5bc;}.cls-7{fill:#c1ccce;}.cls-8{fill:#e4dfd3;}.cls-9{fill:#1a242e;}</style><clipPath id="clip-path"><rect class="cls-1" width="165.2" height="121.81"/></clipPath></defs><title>OHS Logo</title><g id="Layer_2" data-name="Layer 2"><g id="Layer_1-2" data-name="Layer 1"><polygon class="cls-2" points="159.96 64.98 159.96 73.88 165.2 73.88 165.2 72.89 161.06 72.89 161.06 64.98 159.96 64.98"/><g class="cls-3"><path class="cls-4" d="M92,113.07A34.26,34.26,0,1,1,126.3,78.82,34.3,34.3,0,0,1,92,113.07"/><path class="cls-5" d="M59.76,78.6a26,26,0,0,1-8.91-1.47c-8.22-3-16-5.78-20.15-20.44A38.55,38.55,0,0,1,36.59,24C45.08,12.44,55.32,5.46,69.76,1.3A33,33,0,0,1,86.93,1,20.61,20.61,0,0,1,95.4,5.85c5.46,5,8.95,12,10.11,20.23a43.36,43.36,0,0,1-3.11,23,49.94,49.94,0,0,1-30,27.32A41.4,41.4,0,0,1,59.76,78.6"/><path class="cls-6" d="M4.61,66.21C.3,51.16-2.06,42.13,2.39,35.27s10.56-8,22.41-9.08,25.94,1.49,38,7.41S86.5,54.91,92.06,62.51s6.3,15.93,4.26,24.82-10,18.72-15.56,23.53-18.9,11.31-30.2,10.94-19.46-6.12-28.35-16.12-15.46-32-17.6-39.47"/><path class="cls-2" d="M106.73,69.43a4.44,4.44,0,0,1,4.58-4.6,4.24,4.24,0,0,1,3.46,1.65l-.89.56a3.26,3.26,0,0,0-2.57-1.22,3.62,3.62,0,0,0,0,7.23,3.51,3.51,0,0,0,2.4-1v-1.8h-3.07v-1h4.16v3.2a4.56,4.56,0,0,1-3.49,1.55,4.47,4.47,0,0,1-4.58-4.62"/></g><polygon class="cls-2" points="118.46 73.88 118.46 64.98 119.56 64.98 119.56 72.89 123.7 72.89 123.7 73.88 118.46 73.88"/><g class="cls-3"><path class="cls-2" d="M134.07,69.43a3.31,3.31,0,0,0-3.29-3.61c-2,0-3.26,1.53-3.26,3.61s1.26,3.62,3.26,3.62a3.32,3.32,0,0,0,3.29-3.62m-7.7,0A4.42,4.42,0,1,1,130.78,74a4.34,4.34,0,0,1-4.41-4.61"/><path class="cls-2" d="M144.42,71.35a1.51,1.51,0,0,0-1.64-1.53H140v3.07h2.74a1.47,1.47,0,0,0,1.64-1.54m-.18-3.94A1.4,1.4,0,0,0,142.71,66H140v2.87h2.67a1.38,1.38,0,0,0,1.53-1.42m-5.31,6.47V65h4a2.24,2.24,0,0,1,2.49,2.26,2,2,0,0,1-1.56,2.05,2.22,2.22,0,0,1,1.74,2.19,2.33,2.33,0,0,1-2.58,2.4Z"/></g><path class="cls-2" d="M152.68,66.11l-1.89,4.8h3.78Zm3,7.77-.79-2h-4.43l-.79,2h-1.26L152,65h1.38l3.58,8.9Z"/><g class="cls-3"><path class="cls-7" d="M79.43,47a34.25,34.25,0,0,0,1.08,64.09l.25-.21c5.56-4.81,13.52-14.63,15.56-23.53s1.3-17.23-4.26-24.82A168.81,168.81,0,0,0,79.43,47"/><path class="cls-8" d="M92.76,63.52c-.23-.34-.45-.68-.7-1-5.56-7.6-17.23-23-29.27-28.91A76.25,76.25,0,0,0,35.1,26.13a38.75,38.75,0,0,0-4.4,30.56c4.16,14.66,11.93,17.47,20.15,20.44a26,26,0,0,0,8.91,1.47,41.4,41.4,0,0,0,12.68-2.19A49.66,49.66,0,0,0,92.76,63.52"/><path class="cls-9" d="M34.23,69.62c0-7.63-4.82-12.45-10.59-12.45S13.35,61.53,13.35,69c0,7.68,4.82,12.49,10.54,12.49s10.34-4.4,10.34-11.91m-23.58-.08c0-7.51,5.57-13.78,13.12-13.78s13.15,5.48,13.15,13.41c0,7.51-5.56,13.77-13.11,13.77s-13.16-5.52-13.16-13.4"/></g><polygon class="cls-9" points="59.17 82.32 59.17 69.62 44.56 69.62 44.56 82.32 42.11 82.32 42.11 56.38 44.56 56.38 44.56 68.17 59.17 68.17 59.17 56.38 61.62 56.38 61.62 82.32 59.17 82.32"/><g class="cls-3"><path class="cls-9" d="M67.68,79a11.33,11.33,0,0,0,6.84,2.49c4.36,0,7-2.28,7-5.14s-1.58-4.28-6.93-6.23C69.84,68.46,67,66.34,67,62.57c0-4.2,3.16-6.81,8.39-6.81a19,19,0,0,1,7.13,1.45l-.66,2.12a11.91,11.91,0,0,0-6.76-2.16c-4,0-6.15,2.28-6.15,4.82,0,2.94,2.24,4.44,6.89,6.1,4.9,1.74,7.6,3.52,7.6,7.51,0,4.4-3.45,7.34-9.09,7.34A15.69,15.69,0,0,1,67,81.2Z"/></g></g></g></svg>